<svg width="499.99999999999994" height="499.99999999999994" xmlns="http://www.w3.org/2000/svg">
 <style type="text/css">.st0{fill:#FFFFFF;}
	.st1{fill:#AFAFAF;}</style>

 <g>
  <title>background</title>
  <rect fill="none" id="canvas_background" height="402" width="582" y="-1" x="-1"/>
 </g>
 <g>
  <title>Layer 1</title>
  <path id="svg_1" d="m412.5,500l-325,0c-48.1,0 -87.5,-39.4 -87.5,-87.5l0,-325c0,-48.1 39.4,-87.5 87.5,-87.5l325,0c48.1,0 87.5,39.4 87.5,87.5l0,325c0,48.1 -39.4,87.5 -87.5,87.5z" class="st0"/>
  <path id="svg_2" d="m78.200015,220.600008l120.5,78.6l-48.3,28.7l140.7,92.5l-15,23.5l85.1,56.1l51.3,0c48.1,0 87.5,-39.4 87.5,-87.5l0,-114.4l-361.9,-239l-59.9,161.5z"/>
  <path d="m370.408162,270.116324c-35.7,0 -127.9,0 -127.9,0l53.2,-105.9l-157.7,0l0,-105.3l-60.4,0l0,161.4l127.6,0l-55.5,107.6l125.9,0l0,115.7l73.5,0l0,-50.8c0,0 15.9,0 25.5,0c11.3,0 51.2,-11.6 51.2,-61.9s-41.3,-60.8 -55.4,-60.8zm-13.3,73.5c-5.1,0 -9.3,-4.1 -9.3,-9.3c0,-5.1 4.1,-9.3 9.3,-9.3c5.2,0 9.3,4.1 9.3,9.3c-0.1,5.2 -4.2,9.3 -9.3,9.3z" class="st1" id="XMLID_7_"/>
 </g>
</svg>
