<?xml version="1.0" encoding="utf-8"?>
<!-- Generator: Adobe Illustrator 19.0.0, SVG Export Plug-In . SVG Version: 6.00 Build 0)  -->
<svg version="1.1" xmlns="http://www.w3.org/2000/svg" xmlns:xlink="http://www.w3.org/1999/xlink" x="0px" y="0px"
	 viewBox="154 -239 500 500" style="enable-background:new 154 -239 500 500;" xml:space="preserve">
<style type="text/css">
	.st0{fill:#3DB4DE;}
	.st1{fill:#2A7B99;}
	.st2{fill:#FEFEFE;}
</style>
<rect id="XMLID_1_" x="154" y="-239" class="st0" width="500" height="500"/>
<polyline id="XMLID_2_" class="st1" points="292.1,-179.9 654,59.1 654,261 515.2,261 430.1,204.9 445.1,181.4 304.4,88.9 
	352.7,60.2 232.2,-18.4 292.1,-179.9 "/>
<path id="XMLID_7_" class="st2" d="M525,31.3c-35.7,0-127.9,0-127.9,0l53.2-105.9H292.6v-105.3h-60.4v161.4h127.6L304.3,89.1h125.9
	v115.7h73.5V154c0,0,15.9,0,25.5,0c11.3,0,51.2-11.6,51.2-61.9S539.1,31.3,525,31.3z M511.7,104.8c-5.1,0-9.3-4.1-9.3-9.3
	c0-5.1,4.1-9.3,9.3-9.3c5.2,0,9.3,4.1,9.3,9.3C520.9,100.7,516.8,104.8,511.7,104.8z"/>
</svg>
