<?xml version="1.0" encoding="utf-8"?>
<!-- Generator: Adobe Illustrator 19.0.0, SVG Export Plug-In . SVG Version: 6.00 Build 0)  -->
<svg version="1.1" xmlns="http://www.w3.org/2000/svg" xmlns:xlink="http://www.w3.org/1999/xlink" x="0px" y="0px"
	 viewBox="0 0 500 500" style="enable-background:new 0 0 500 500;" xml:space="preserve">
<style type="text/css">
	.st0{fill:#3DB4DE;}
	.st1{fill:#2A7B99;}
	.st2{fill:#FEFEFE;}
</style>
<rect id="XMLID_1_" class="st0" width="500" height="500"/>
<polyline id="XMLID_2_" class="st1" points="138.1,59.1 500,298.1 500,500 361.2,500 276.1,443.9 291.1,420.4 150.4,327.9 
	198.7,299.2 78.2,220.6 138.1,59.1 "/>
<path id="XMLID_7_" class="st2" d="M371,270.3c-35.7,0-127.9,0-127.9,0l53.2-105.9H138.6V59.1H78.2v161.4h127.6l-55.5,107.6h125.9
	v115.7h73.5V393c0,0,15.9,0,25.5,0c11.3,0,51.2-11.6,51.2-61.9S385.1,270.3,371,270.3z M357.7,343.8c-5.1,0-9.3-4.1-9.3-9.3
	c0-5.1,4.1-9.3,9.3-9.3s9.3,4.1,9.3,9.3C366.9,339.7,362.8,343.8,357.7,343.8z"/>
</svg>
