<?xml version="1.0" encoding="utf-8"?>
<!-- Generator: Adobe Illustrator 19.0.0, SVG Export Plug-In . SVG Version: 6.00 Build 0)  -->
<svg version="1.1" id="图层_1" xmlns="http://www.w3.org/2000/svg" xmlns:xlink="http://www.w3.org/1999/xlink" x="0px" y="0px"
	 viewBox="154 -239 500 500" style="enable-background:new 154 -239 500 500;" xml:space="preserve">
<style type="text/css">
	.st0{fill:#FFFFFF;}
	.st1{fill:#AFAFAF;}
</style>
<path class="st0" d="M566.5,261h-325c-48.1,0-87.5-39.4-87.5-87.5v-325c0-48.1,39.4-87.5,87.5-87.5h325c48.1,0,87.5,39.4,87.5,87.5
	v325C654,221.6,614.6,261,566.5,261z"/>
<path d="M232.2-18.4l120.5,78.6l-48.3,28.7l140.7,92.5l-15,23.5l85.1,56.1h51.3c48.1,0,87.5-39.4,87.5-87.5V59.1l-361.9-239
	L232.2-18.4z"/>
<path id="XMLID_7_" class="st1" d="M525,31.3c-35.7,0-127.9,0-127.9,0l53.2-105.9H292.6v-105.3h-60.4v161.4h127.6L304.3,89.1h125.9
	v115.7h73.5V154c0,0,15.9,0,25.5,0c11.3,0,51.2-11.6,51.2-61.9S539.1,31.3,525,31.3z M511.7,104.8c-5.1,0-9.3-4.1-9.3-9.3
	c0-5.1,4.1-9.3,9.3-9.3c5.2,0,9.3,4.1,9.3,9.3C520.9,100.7,516.8,104.8,511.7,104.8z"/>
</svg>
